HIERARCHY
ROOT Hips
{
  OFFSET 0 0 0
  CHANNELS 6 Xposition Yposition Zposition Zrotation Yrotation Xrotation
  JOINT LeftThigh
  {
    OFFSET 8.409438 0 -5.917753
    CHANNELS 3 Zrotation Yrotation Xrotation
    JOINT LeftLeg
    {
      OFFSET 0 0 -42.358652
      CHANNELS 3 Zrotation Yrotation Xrotation
      JOINT LeftFoot
      {
        OFFSET 0 0 -39.357303
        CHANNELS 3 Zrotation Yrotation Xrotation
      }
    }
  }
  JOINT RightThigh
  {
    OFFSET -8.409438 0 -5.917753
    CHANNELS 3 Zrotation Yrotation Xrotation
    JOINT RightLeg
    {
      OFFSET 0 0 -42.358652
      CHANNELS 3 Zrotation Yrotation Xrotation
      JOINT RightFoot
      {
        OFFSET 0 0 -39.357303
        CHANNELS 3 Zrotation Yrotation Xrotation
      }
    }
  }
  JOINT SpineLow
  {
    OFFSET 0 0 4.719101
    CHANNELS 3 Zrotation Yrotation Xrotation
    JOINT SpineMid
    {
      OFFSET 0 0 12.899191
      CHANNELS 3 Zrotation Yrotation Xrotation
      JOINT Chest
      {
        OFFSET 0 0 12.899191
        CHANNELS 3 Zrotation Yrotation Xrotation
        JOINT LeftShoulder
        {
          OFFSET 7.550562 1.41573 9.438202
          CHANNELS 3 Zrotation Yrotation Xrotation
          JOINT LeftArm
          {
            OFFSET 9.155056 0 4.247191
            CHANNELS 3 Zrotation Yrotation Xrotation
            JOINT LeftForearm
            {
              OFFSET 0 0 25.771955
              CHANNELS 3 Zrotation Yrotation Xrotation
              JOINT LeftHand
              {
                OFFSET 0 0 25.197169
                CHANNELS 3 Zrotation Yrotation Xrotation
              }
            }
          }
        }
        JOINT RightShoulder
        {
          OFFSET -7.550562 1.41573 9.438202
          CHANNELS 3 Zrotation Yrotation Xrotation
          JOINT RightArm
          {
            OFFSET -9.155056 0 4.247191
            CHANNELS 3 Zrotation Yrotation Xrotation
            JOINT RightForearm
            {
              OFFSET 0 0 -25.771955
              CHANNELS 3 Zrotation Yrotation Xrotation
              JOINT RightHand
              {
                OFFSET 0 0 -25.197169
                CHANNELS 3 Zrotation Yrotation Xrotation
              }
            }
          }
        }
        JOINT Neck
        {
          OFFSET 0 0 15.101124
          CHANNELS 3 Zrotation Yrotation Xrotation
          JOINT Head
          {
            OFFSET 0 0 11.325843
            CHANNELS 3 Zrotation Yrotation Xrotation
            End Site
            {
              OFFSET 0 0 14.157303
            }
          }
        }
      }
    }
  }
}
MOTION
Frames: 10
Frame Time: 0.0
0.0  101.685394  0.0  2.275793  29.537311  -97.558871  -6.418005  -14.125262  2.471708  -14.714471  9.109393  21.798556  -0.221142  3.651514  1.668283  -23.534236  17.159608  -2.275462  -22.078278  12.04719  16.030532  18.923413  5.808984  -2.776319  -0.573921  0.408172  1.863813  -1.536383  1.159078  5.085007  -1.536383  1.159078  5.085007  19.627899  11.080124  18.089231  149.923078  17.503553  165.848591  -24.266121  16.583198  125.871302  54.82519  19.226465  30.789396  28.48827  -8.182211  27.630446  92.504472  66.744955  31.105855  -86.029454  62.063215  -91.587002  80.063077  6.535171  35.482006  -7.392075  -1.204249  -5.15317  -5.554474  -0.841069  -3.879975  
0.0  101.685394  0.0  2.292717  31.13559  -97.178135  -7.645221  -13.943743  1.151152  -14.923288  9.430088  22.677314  0.040705  3.692965  1.737206  -23.614073  17.055496  -2.394421  -22.720507  12.339752  16.468503  18.395912  5.946647  -2.995208  -0.593896  0.457355  1.855624  -1.587363  1.294756  5.061172  -1.587363  1.294756  5.061172  19.543612  11.102626  17.788757  149.759655  16.921003  165.991199  -24.223268  15.869975  126.020517  55.561091  19.423825  30.85641  28.874411  -8.41155  27.316978  97.647329  65.095967  32.415162  -89.977541  65.464265  -92.632251  79.981441  6.490202  34.670995  -7.763539  -1.249836  -5.228188  -5.833621  -0.871199  -3.937618  
0.0  101.685394  0.0  2.246516  32.492692  -96.838477  -8.185786  -14.042053  0.1741  -15.430566  9.761813  23.200578  0.068746  3.705719  1.709411  -23.311005  16.851975  -2.519278  -23.183214  12.670274  17.05724  17.936378  6.18336  -3.173832  -0.598306  0.49613  1.847842  -1.596636  1.400816  5.038954  -1.596636  1.400816  5.038953  19.470627  11.200063  17.485192  149.562315  16.396395  166.239835  -24.392018  14.828379  126.112405  56.439365  19.34615  31.132313  29.13706  -8.584183  26.959926  96.102499  65.917912  30.914813  -88.851249  65.328444  -92.256852  79.907414  6.527303  34.106771  -8.063751  -1.332277  -5.28413  -6.059596  -0.929755  -3.981322  
0.0  101.685394  0.0  2.19663  33.784625  -96.462962  -8.880652  -14.199876  -0.925088  -15.525425  10.128226  23.913972  0.196453  3.753907  1.782371  -23.017321  16.591448  -2.814912  -23.499404  13.039496  17.786424  17.198976  6.458901  -3.354764  -0.59688  0.540445  1.832515  -1.589752  1.521388  4.996115  -1.589752  1.521388  4.996114  19.304533  11.268019  17.117522  149.397666  15.993737  166.555934  -24.737057  13.399253  126.105669  56.821457  19.210539  31.407413  29.396817  -8.811463  26.61315  94.440864  66.637047  29.29563  -88.002278  65.241727  -92.069083  78.249722  7.601171  32.767336  -8.468807  -1.429966  -5.326235  -6.36431  -0.998979  -4.015202  
0.0  101.685394  0.0  2.120744  34.847653  -96.133533  -9.532548  -14.359658  -1.968722  -15.292854  10.412477  24.779945  0.069194  3.787123  1.708178  -22.50898  16.290815  -3.181682  -23.602968  13.464009  18.691039  16.564653  6.788901  -3.503953  -0.587325  0.568593  1.808459  -1.562134  1.596995  4.929979  -1.562134  1.596996  4.929979  19.220388  11.407161  16.774292  149.37737  15.818189  166.923629  -25.102746  11.668296  125.896967  56.404857  18.877429  31.663353  29.520802  -8.943327  26.346098  92.994975  67.146551  27.635734  -87.694485  65.288754  -92.252161  78.307492  7.598008  32.704951  -8.785758  -1.531387  -5.309159  -6.602819  -1.07257  -4.004633  
0.0  101.685394  0.0  2.115758  35.727583  -95.817666  -10.840079  -14.313671  -3.484608  -14.265674  10.651929  26.335537  0.146368  3.916236  1.735678  -21.908942  16.108469  -3.617089  -23.197811  13.848331  19.85095  15.435807  7.012579  -3.737213  -0.586736  0.605011  1.795463  -1.558176  1.696127  4.893693  -1.558176  1.696127  4.893693  19.262902  11.595309  16.315168  149.531868  15.936324  167.297536  -25.286587  10.170858  125.623861  55.640378  18.573213  31.981042  29.825231  -9.081659  26.066032  91.469539  67.545446  25.870719  -86.211943  64.856329  -91.93268  79.179595  7.122657  33.445236  -9.163427  -1.589093  -5.317535  -6.886574  -1.112479  -4.012798  
0.0  101.685394  0.0  2.133048  36.298121  -95.615152  -11.157319  -14.304974  -4.314001  -13.972101  10.81089  27.267786  0.101001  3.980042  1.661965  -21.119391  15.846674  -4.046037  -23.288069  14.416095  20.831211  15.092193  7.326898  -3.848003  -0.567023  0.636609  1.805242  -1.501734  1.781201  4.920302  -1.501733  1.781201  4.920302  19.308711  11.913329  15.796342  149.902499  16.389618  167.687043  -25.25104  9.191754  125.359269  54.759676  18.425661  32.20583  30.05227  -9.158988  25.745989  90.174144  67.795216  24.144635  -86.77215  65.112152  -92.78312  79.383596  7.124069  33.336074  -9.361925  -1.708981  -5.329954  -7.036462  -1.200524  -4.024476  
0.0  101.685394  0.0  2.276804  36.741011  -95.362436  -11.520922  -14.186978  -5.14526  -13.64433  10.978103  28.190271  0.201697  4.068204  1.64621  -20.44332  15.698062  -4.629158  -23.327072  15.019874  21.827124  15.062249  7.668573  -3.912315  -0.540344  0.688407  1.831704  -1.424242  1.921261  4.992401  -1.424242  1.921261  4.992401  19.25537  12.245292  15.170048  150.435388  17.029099  168.084826  -24.998559  8.563041  125.127172  54.002109  18.326012  32.36713  30.391275  -9.356712  25.354722  88.870561  68.022346  22.528012  -87.546995  65.312254  -93.832757  79.642562  7.147858  33.067149  -9.792682  -1.755386  -5.413788  -7.360171  -1.230273  -4.089404  
0.0  101.685394  0.0  2.393265  36.74553  -95.207802  -11.486065  -14.194729  -5.713278  -13.399788  11.245495  28.971883  0.256252  4.140682  1.565472  -19.903083  15.6168  -5.244389  -23.052027  15.518504  22.806206  14.924394  7.863755  -4.023794  -0.476037  0.717597  1.854632  -1.245647  1.996567  5.056512  -1.245647  1.996567  5.056512  19.17443  12.713119  14.694345  151.099346  17.752712  168.531913  -24.631533  7.9784  124.847707  53.547801  18.062648  32.531903  30.573242  -9.513441  25.100447  88.034601  68.138466  21.176866  -88.492594  65.378835  -95.062607  80.033686  7.173312  32.563763  -9.914583  -1.785325  -5.407914  -7.451825  -1.251761  -4.085854  
0.0  101.685394  0.0  2.520292  36.480137  -95.061764  -11.274162  -14.253356  -6.191623  -14.065284  11.747431  29.015939  0.927599  4.410955  1.80597  -19.868155  15.600547  -5.964536  -22.312967  15.857843  23.706592  15.062117  8.069646  -4.144782  -0.412406  0.75196  1.881871  -1.068309  2.085997  5.132477  -1.068309  2.085997  5.132476  19.176285  13.14744  14.196505  151.699421  18.428142  169.025733  -24.282779  7.209066  124.409556  53.348803  17.493953  32.71869  30.886602  -9.745825  24.85717  87.327814  68.218598  19.936846  -88.37029  65.468754  -95.489326  80.491342  7.458882  31.965988  -9.924105  -1.796489  -5.402381  -7.45904  -1.260143  -4.081912  
